<?xml version="1.0" encoding="UTF-8"?><svg xmlns="http://www.w3.org/2000/svg" xmlns:xlink="http://www.w3.org/1999/xlink" height="256.0" preserveAspectRatio="xMidYMid meet" version="1.0" viewBox="-0.0 -0.0 256.0 256.0" width="256.0" zoomAndPan="magnify">
 <g id="change1_1"><path d="m241.87 0h-227.74a14.13 14.13 0 0 0 -14.13 14.13v227.74a14.13 14.13 0 0 0 14.13 14.13h122.62v-99h-33.25v-38.75h33.25v-28.5c0-33.065 20.195-51.07 49.7-51.07 14.125 0 26.27 1.05 29.8 1.5v34.555h-20.35c-16.05 0-19.16 7.625-19.16 18.82v24.695h38.37l-5 38.75h-33.37v99h65.12a14.13 14.13 0 0 0 14.14 -14.13v-227.74a14.13 14.13 0 0 0 -14.13 -14.13z" fill="#4267b2"/></g>
 <g id="change2_1"><path d="m176.75 256v-99h33.375l5-38.75h-38.37v-24.68c0-11.195 3.1-18.82 19.16-18.82h20.34v-34.565c-3.54-0.47-15.685-1.5-29.8-1.5-29.5 0-49.7 18-49.7 51.07v28.5h-33.25v38.74h33.25v99z" fill="#fff"/></g>
</svg>